<?xml version="1.0" encoding="iso-8859-1"?>
<!-- Generator: Adobe Illustrator 19.0.0, SVG Export Plug-In . SVG Version: 6.00 Build 0)  -->
<svg version="1.1" id="Layer_1" xmlns="http://www.w3.org/2000/svg" xmlns:xlink="http://www.w3.org/1999/xlink" x="0px" y="0px"
	 viewBox="0 0 487.8 487.8" style="enable-background:new 0 0 487.8 487.8;" xml:space="preserve">
<g transform="translate(0 -540.36)">
	<g>
		<g>
			<path d="M76.25,674.822l41.8,19.1c1.3,0.6,2.7,0.9,4.1,0.9c2.7,0,5.3-1.1,7.2-3l20.3-21c3.8-3.9,3.8-10,0-13.9l-20.3-21
				c-2.9-3-7.5-3.9-11.3-2.1l-41.8,19.1l-41.8-19.1c-3.8-1.8-8.4-0.9-11.3,2.1l-20.3,21c-3.8,3.9-3.8,10,0,13.9l20.3,21
				c2.9,3,7.5,3.9,11.3,2.1L76.25,674.822z M119.85,654.822l8.7,9l-8.7,8.9l-19.6-8.9L119.85,654.822z M23.75,663.822l8.7-9l19.6,9
				l-19.6,8.9L23.75,663.822z"/>
			<path d="M484.95,656.922l-20.3-21c-3-3-7.5-3.9-11.4-2.1l-41.4,19.1l-41.4-19.1c-3.9-1.8-8.4-0.9-11.4,2.1l-20.3,21
				c-3.8,3.9-3.8,10,0,13.9l20.3,21c3,3,7.5,3.9,11.4,2.1l41.4-19.1l41.4,19.1c1.4,0.6,2.8,0.9,4.2,0.9c2.7,0,5.3-1.1,7.2-3l20.3-21
				C488.75,666.922,488.75,660.822,484.95,656.922z M368.65,672.722l-8.7-8.9l8.7-8.9l19.4,8.9L368.65,672.722z M455.25,672.722
				l-19.4-8.9l19.4-8.9l8.7,8.9L455.25,672.722z"/>
			<path d="M454.25,745.922c-7.4-31.4-24-39.1-36.6-40.1c-8.3-0.7-16,2-22.1,7.8c-8.7,8.1-13.3,21.5-15.9,34.2h-51.4
				c-3.2-4.6-7.3-8.8-12.5-12.6c-34.7-25.5-108.2-25.5-143,0c-5.1,3.8-9.3,8-12.5,12.6h-51.6c-0.1-0.6-0.3-1.2-0.4-1.9
				c-7.4-31.4-24-39.1-36.6-40.1c-8.3-0.7-16,2-22.1,7.8c-18.8,17.6-18.8,60.4-18.8,65.3c0,3.2,1.6,6.2,4.3,8.1l30.1,21
				c1.7,1.2,3.7,1.8,5.7,1.8s3.9-0.6,5.6-1.7l30.9-21c2.7-1.8,4.3-4.8,4.4-8c0-0.3,0.1-4.8-0.3-11.2h41.6
				c-0.5,6.2,0.3,12.8,2.6,19.6c1.4,5.9,8.4,33.7,19.6,58l-37.3,19.2c-3.3,1.7-5.4,5.1-5.4,8.9v52c0,5.5,4.5,10,10,10s10-4.5,10-10
				v-45.9l32.2-16.6c4.2,6.5,8.7,12.1,13.6,15.9c0.1,0.1,0.2,0.1,0.2,0.2c12.8,9.3,29.3,14,45.8,14s32.9-4.7,45.8-14
				c0.1-0.1,0.2-0.1,0.2-0.2c4.9-3.8,9.4-9.3,13.6-15.9l32.2,16.6v45.9c0,5.5,4.5,10,10,10s10-4.5,10-10v-52c0-3.7-2.1-7.2-5.4-8.9
				l-37.3-19.2c11.2-24.3,18.1-52.1,19.6-58c2.3-6.8,3.1-13.4,2.6-19.6h41.6c-0.4,5.7-0.4,9.8-0.3,11.1c0,3.2,1.6,6.2,4.3,8.1
				l30.1,21c1.7,1.2,3.7,1.8,5.7,1.8s3.9-0.6,5.6-1.7l30.9-21c2.7-1.8,4.3-4.8,4.4-8C457.75,778.322,458.15,762.422,454.25,745.922
				L454.25,745.922z M70.95,787.622l-20.1-14c0.5-15.2,4-37.5,12.4-45.3c2.1-1.9,4.1-2.7,6.9-2.4c16.7,1.3,21.2,31.8,21.7,47.7
				L70.95,787.622z M313.75,781.422c-0.1,0.3-0.2,0.6-0.3,1c-6,25.2-20.8,69.3-35.3,80.7c-18.4,13.2-49.4,13.2-67.8,0
				c-14.5-11.4-29.4-55.5-35.3-80.7c-0.1-0.3-0.2-0.6-0.3-1c-4.3-12.4-1.1-22,9.9-30.1c12.9-9.5,35.2-15.2,59.6-15.2
				c24.4,0,46.7,5.7,59.6,15.2C314.85,759.422,318.05,768.922,313.75,781.422z M416.85,787.622l-20.1-14c0.5-15.2,4-37.5,12.4-45.3
				c2.1-1.9,4.1-2.7,6.9-2.4c16.7,1.3,21.2,31.8,21.7,47.7L416.85,787.622z"/>
		</g>
	</g>
</g>
<g>
</g>
<g>
</g>
<g>
</g>
<g>
</g>
<g>
</g>
<g>
</g>
<g>
</g>
<g>
</g>
<g>
</g>
<g>
</g>
<g>
</g>
<g>
</g>
<g>
</g>
<g>
</g>
<g>
</g>
</svg>
