<?xml version="1.0" encoding="iso-8859-1"?>
<!-- Generator: Adobe Illustrator 18.0.0, SVG Export Plug-In . SVG Version: 6.00 Build 0)  -->
<!DOCTYPE svg PUBLIC "-//W3C//DTD SVG 1.1//EN" "http://www.w3.org/Graphics/SVG/1.1/DTD/svg11.dtd">
<svg version="1.1" id="Capa_1" xmlns="http://www.w3.org/2000/svg" xmlns:xlink="http://www.w3.org/1999/xlink" x="0px" y="0px"
	 viewBox="0 0 292.501 292.501" style="enable-background:new 0 0 292.501 292.501;" xml:space="preserve">
<path d="M237.222,174.997h-20.387l-103.51-29.688l91.557-14.008c2.523,1.743,5.578,2.77,8.87,2.77c8.63,0,15.651-7.02,15.651-15.649
	c0-8.629-7.021-15.648-15.651-15.648c-0.718,0-1.419,0.065-2.112,0.159l-34.528-21.131c1.933,0.246,3.873,0.511,5.82,0.793
	c17.669,4.119,34.308-6.733,33.854-25.749c0-9.31,0-13.967,0-23.28c0.455-19.016-16.188-29.863-33.854-25.749
	c-30.581,4.443-59.195,4.442-89.774,0C75.489,3.703,58.851,14.55,59.302,33.566c0,9.314,0,13.97,0,23.28
	C58.851,75.863,75.49,86.712,93.158,82.595c12.673-1.842,25.008-2.907,37.287-3.223c0.525,0.48,1.099,0.921,1.728,1.306
	l50.96,31.188L68.629,129.385c-2.578-1.87-5.737-2.986-9.158-2.986c-8.63,0-15.65,7.02-15.65,15.649
	c0,8.629,7.021,15.649,15.65,15.649c2.882,0,5.576-0.797,7.897-2.161l67.851,19.46h-79.94C24.798,174.997,0,199.793,0,230.274
	c0,30.479,24.798,55.277,55.279,55.277h181.943c30.48,0,55.279-24.798,55.279-55.277
	C292.501,199.793,267.703,174.997,237.222,174.997z M169.585,25.442c10.916,0,19.765,8.849,19.765,19.765
	c0,10.916-8.849,19.767-19.765,19.767c-10.916,0-19.765-8.851-19.765-19.767C149.82,34.29,158.669,25.442,169.585,25.442z
	 M106.503,64.973c-10.916,0-19.765-8.851-19.765-19.767c0-10.916,8.849-19.765,19.765-19.765c10.916,0,19.765,8.849,19.765,19.765
	C126.269,56.123,117.42,64.973,106.503,64.973z M213.752,125.273c-3.777,0-6.851-3.073-6.851-6.851c0-3.776,3.073-6.85,6.851-6.85
	c3.778,0,6.852,3.073,6.852,6.85C220.604,122.2,217.53,125.273,213.752,125.273z M52.62,142.048c0-3.777,3.074-6.851,6.852-6.851
	c3.777,0,6.851,3.073,6.851,6.851c0,3.777-3.073,6.851-6.851,6.851C55.693,148.899,52.62,145.826,52.62,142.048z M76.53,232.42
	c-1.059-1.696-2.533-3.168-4.386-4.238c-6.033-3.482-13.748-1.413-17.23,4.62c-3.485,6.032-1.418,13.749,4.615,17.231
	c1.967,1.136,4.112,1.671,6.232,1.682c-4.417,3.256-9.868,5.185-15.763,5.185c-5.896,0-11.347-1.929-15.763-5.185
	c2.12-0.011,4.265-0.546,6.232-1.682c6.032-3.482,8.099-11.2,4.616-17.231c-3.483-6.034-11.197-8.103-17.231-4.617
	c-1.853,1.069-3.327,2.539-4.386,4.235c-0.057-0.709-0.094-1.424-0.094-2.146c0-10.624,6.257-19.811,15.277-24.079
	c-0.803,1.659-1.266,3.514-1.266,5.48c0,6.967,5.648,12.614,12.615,12.614c6.966,0,12.615-5.648,12.615-12.614
	c0-1.967-0.463-3.821-1.266-5.481c9.02,4.268,15.277,13.456,15.277,24.08C76.624,230.998,76.587,231.711,76.53,232.42z
	 M87.874,230.274c0-13.986-7.626-26.217-18.932-32.777h58.365c-11.307,6.561-18.932,18.791-18.932,32.777
	c0,13.986,7.626,26.217,18.932,32.777H68.942C80.248,256.491,87.874,244.26,87.874,230.274z M172.782,232.419
	c-1.059-1.696-2.533-3.167-4.385-4.237c-6.033-3.482-13.748-1.413-17.23,4.62c-3.483,6.032-1.418,13.749,4.615,17.231
	c1.967,1.136,4.112,1.671,6.232,1.682c-4.417,3.256-9.868,5.185-15.763,5.185c-5.895,0-11.347-1.929-15.763-5.185
	c2.119-0.011,4.265-0.546,6.232-1.682c6.033-3.482,8.099-11.2,4.616-17.231c-3.483-6.034-11.198-8.103-17.231-4.617
	c-1.853,1.069-3.327,2.539-4.385,4.235c-0.057-0.709-0.094-1.424-0.094-2.146c0-10.624,6.256-19.811,15.277-24.079
	c-0.803,1.659-1.267,3.514-1.267,5.48c0,6.967,5.65,12.614,12.615,12.614c6.966,0,12.615-5.648,12.615-12.614
	c0-1.967-0.463-3.821-1.267-5.48c9.02,4.269,15.277,13.455,15.277,24.079C172.876,230.997,172.839,231.711,172.782,232.419z
	 M184.126,230.274c0-13.986-7.626-26.217-18.932-32.777h49.993c0.023,0,0.047,0.003,0.07,0.003c0.02,0,0.04-0.003,0.06-0.003h8.242
	c-11.307,6.561-18.932,18.791-18.932,32.777c0,13.986,7.626,26.217,18.932,32.777h-58.365
	C176.5,256.491,184.126,244.26,184.126,230.274z M237.587,232.802c-3.483-6.034-11.197-8.103-17.23-4.617
	c-1.853,1.069-3.327,2.54-4.386,4.236c-0.057-0.709-0.094-1.424-0.094-2.147c0-10.624,6.257-19.812,15.277-24.08
	c-0.803,1.66-1.267,3.515-1.267,5.481c0,6.967,5.649,12.614,12.615,12.614c6.968,0,12.615-5.648,12.615-12.614
	c0-1.967-0.463-3.821-1.266-5.48c9.02,4.269,15.277,13.455,15.277,24.079c0,0.723-0.037,1.438-0.094,2.145
	c-1.059-1.696-2.533-3.167-4.386-4.237c-6.033-3.482-13.748-1.413-17.23,4.62c-3.483,6.032-1.417,13.749,4.615,17.231
	c1.967,1.136,4.112,1.671,6.231,1.682c-4.416,3.256-9.868,5.185-15.763,5.185c-5.895,0-11.347-1.929-15.763-5.185
	c2.12-0.011,4.265-0.546,6.232-1.682C239.005,246.551,241.072,238.833,237.587,232.802z"/>
<g>
</g>
<g>
</g>
<g>
</g>
<g>
</g>
<g>
</g>
<g>
</g>
<g>
</g>
<g>
</g>
<g>
</g>
<g>
</g>
<g>
</g>
<g>
</g>
<g>
</g>
<g>
</g>
<g>
</g>
</svg>
